# xmcd
#
# Track frame offsets:
# 150
# 20761
# 48776
# 67115
# 84092
# 104629
# 122158
# 151343
# 167507
# 191584
# 218380
# 238059
#
# Disc length: 3341 seconds
#
# Revision: 1
# Processed by: cddbd v1.4PL0 Copyright (c) Steve Scherf et al.
# Submitted via: CedeCatalogueitor 2.5 http://usuarios.lycos.es/kakasboy
#
DISCID=990d0b0c
DTITLE=Mark Knopfler - The Ragpieker's Dream
DYEAR=2002
DGENRE=
TTITLE0=Why Are Man
TTITLE1=Davil Baby
TTITLE2=Hill Farmer's Blues
TTITLE3=A Place Where We Used To Live
TTITLE4=Quality Shoe
TTITLE5=Fare Thee Well Northumerland
TTITLE6=Marbletown
TTITLE7=You Don't Know You're Born
TTITLE8=Coyote
TTITLE9=The Ragpieker's Dream
TTITLE10=Daddy's Gone To Knoxville
TTITLE11=Old Pigweed
EXTD=Volumen 2-2
EXTT0=
EXTT1=
EXTT2=
EXTT3=
EXTT4=
EXTT5=
EXTT6=
EXTT7=
EXTT8=
EXTT9=
EXTT10=
EXTT11=
PLAYORDER=
